<?xml version="1.0" standalone="no"?>
<!DOCTYPE svg PUBLIC "-//W3C//DTD SVG 20010904//EN"
 "http://www.w3.org/TR/2001/REC-SVG-20010904/DTD/svg10.dtd">
<svg version="1.0" xmlns="http://www.w3.org/2000/svg"
 width="512.000000pt" height="512.000000pt" viewBox="0 0 512.000000 512.000000"
 preserveAspectRatio="xMidYMid meet">
<metadata>
Created by potrace 1.14, written by Peter Selinger 2001-2017
</metadata>
<g transform="translate(0.000000,512.000000) scale(0.100000,-0.100000)"
fill="#000000" stroke="none">
<path d="M2668 5105 c-99 -32 -168 -137 -168 -258 0 -47 -3 -53 -59 -113 -81
-86 -104 -148 -103 -274 1 -113 24 -213 81 -341 l40 -89 -737 0 c-846 0 -773
-8 -889 100 -52 49 -70 60 -97 60 -49 0 -80 -29 -80 -75 0 -35 7 -45 73 -106
42 -40 100 -82 139 -101 l67 -33 1562 -3 1563 -2 0 -23 c0 -14 -24 -45 -71
-89 l-71 -68 -344 0 c-341 0 -343 0 -369 -22 -15 -14 -26 -35 -27 -53 0 -16
-14 -79 -29 -140 -33 -128 -45 -221 -55 -397 l-6 -127 -58 -51 -58 -50 -182 0
c-179 0 -181 0 -205 -25 -16 -15 -25 -36 -25 -55 0 -19 9 -40 25 -55 24 -25
24 -25 234 -25 l210 0 68 59 c38 32 185 163 328 290 l260 231 103 -104 104
-104 -175 -213 c-380 -464 -439 -526 -567 -593 -84 -44 -153 -64 -264 -75
-142 -14 -125 57 -163 -683 -17 -348 -32 -641 -32 -651 -1 -16 -12 -17 -123
-15 l-123 3 -13 95 c-7 52 -33 230 -57 395 -62 423 -69 502 -69 750 0 250 9
324 63 500 l36 120 -1 240 c-1 274 -12 384 -54 542 -17 62 -30 125 -30 142 0
48 -39 71 -122 71 -60 0 -72 -3 -93 -25 -45 -44 -25 -117 35 -130 26 -6 32
-14 45 -58 46 -161 65 -335 65 -594 0 -123 -3 -152 -25 -220 -108 -345 -109
-716 0 -1413 44 -286 112 -847 103 -856 -2 -1 -39 -11 -83 -23 -44 -12 -97
-33 -118 -47 -40 -26 -86 -84 -107 -134 l-12 -30 -980 0 -979 0 -24 -25 c-33
-32 -33 -78 0 -110 l24 -25 2500 0 c1837 0 2507 3 2525 11 29 14 51 59 41 89
-4 11 -16 30 -28 40 -20 20 -41 20 -1139 20 l-1118 0 0 138 c0 134 76 1712 83
1719 2 2 30 8 63 14 151 26 304 99 413 196 92 81 413 464 797 951 276 351 277
352 322 352 52 1 115 32 143 71 22 31 24 46 27 162 3 114 1 132 -18 172 -21
43 -71 85 -102 85 -10 0 -21 23 -33 68 -24 91 -47 134 -91 170 -68 56 -171 67
-250 25 -57 -29 -72 -58 -87 -158 l-12 -90 -522 -3 -522 -2 41 92 c56 131 79
225 80 338 2 126 -22 187 -103 274 -54 58 -59 68 -59 108 0 68 -23 142 -58
186 -61 76 -175 108 -274 77z m136 -167 c14 -13 28 -34 31 -48 l6 -25 -91 0
c-80 0 -90 2 -90 18 0 10 13 32 29 48 36 36 79 38 115 7z m80 -266 c61 -34
111 -102 120 -165 16 -104 -58 -351 -127 -426 -63 -68 -191 -68 -255 2 -28 30
-95 184 -110 252 -29 134 -24 199 21 266 25 37 113 95 156 103 59 10 144 -4
195 -32z m1454 -547 c11 -14 25 -48 32 -75 l12 -50 -44 -49 c-50 -55 -68 -104
-68 -182 0 -53 26 -129 49 -144 8 -4 -5 -28 -37 -68 -27 -34 -102 -130 -169
-214 l-120 -152 -93 94 -94 94 50 43 c194 169 345 312 349 331 5 25 55 374 55
388 0 21 59 8 78 -16z m182 -345 c0 -84 -1 -90 -20 -90 -75 0 -97 142 -27 170
45 18 47 15 47 -80z m-810 -273 c-14 -13 -108 -97 -210 -187 -102 -90 -198
-175 -214 -189 l-29 -26 7 95 c5 86 30 213 57 298 l11 32 201 0 202 0 -25 -23z
m-1033 -2949 c-4 -62 -7 -177 -7 -255 l0 -143 -242 0 -242 0 21 21 c14 14 63
33 139 53 157 41 152 32 135 247 -7 90 -15 169 -18 176 -4 10 20 13 107 13
l113 0 -6 -112z"/>
<path d="M593 4021 c-52 -13 -118 -57 -146 -98 -98 -142 -28 -336 139 -382 25
-7 197 -11 492 -11 378 0 458 2 481 15 48 24 56 81 16 120 l-24 25 -466 0
-467 0 -29 29 c-54 55 -26 135 52 147 51 8 77 30 85 70 12 60 -56 104 -133 85z"/>
<path d="M1785 3665 c-42 -41 -30 -102 25 -125 35 -15 84 0 100 31 28 52 -12
119 -70 119 -19 0 -40 -9 -55 -25z"/>
</g>
</svg>
