<svg width="152" height="129" viewBox="0 0 152 129" fill="none" xmlns="http://www.w3.org/2000/svg">
<g clip-path="url(#clip0_95_2)">
<path d="M11.9 128.94L0.140015 107.52C11.62 100.8 20.3 93.24 26.18 84.84C32.06 76.72 35 66.64 35 54.6C34.16 54.88 32.9 55.02 31.22 55.02C23.94 55.02 17.5 52.78 11.9 48.3C6.58001 43.54 3.92001 37.1 3.92001 28.98C3.92001 20.02 6.44001 13.02 11.48 7.97999C16.8 2.66 23.38 0 31.22 0C41.86 0 49.98 4.06 55.58 12.18C61.46 20.3 64.4 31.78 64.4 46.62C64.4 83.3 46.9 110.74 11.9 128.94ZM98.84 128.94L87.08 107.52C98.56 100.8 107.24 93.24 113.12 84.84C119 76.72 121.94 66.64 121.94 54.6C121.1 54.88 119.84 55.02 118.16 55.02C110.88 55.02 104.44 52.78 98.84 48.3C93.52 43.54 90.86 37.1 90.86 28.98C90.86 20.02 93.38 13.02 98.42 7.97999C103.74 2.66 110.32 0 118.16 0C128.8 0 136.92 4.06 142.52 12.18C148.4 20.3 151.34 31.78 151.34 46.62C151.34 83.3 133.84 110.74 98.84 128.94Z" fill="#707070"/>
<path d="M11.9 128.94L11.4617 129.181L11.697 129.609L12.1307 129.384L11.9 128.94ZM0.140043 107.52L-0.112547 107.089L-0.532349 107.334L-0.298246 107.761L0.140043 107.52ZM26.18 84.84L25.775 84.5467L25.7704 84.5533L26.18 84.84ZM35 54.6H35.5V53.9063L34.8419 54.1257L35 54.6ZM11.9 48.3L11.5666 48.6726L11.5769 48.6818L11.5877 48.6904L11.9 48.3ZM55.58 12.18L55.1683 12.4639L55.175 12.4733L55.58 12.18ZM98.84 128.94L98.4017 129.181L98.637 129.609L99.0707 129.384L98.84 128.94ZM87.08 107.52L86.8274 107.089L86.4076 107.334L86.6417 107.761L87.08 107.52ZM113.12 84.84L112.715 84.5467L112.71 84.5533L113.12 84.84ZM121.94 54.6H122.44V53.9063L121.782 54.1257L121.94 54.6ZM98.84 48.3L98.5066 48.6726L98.5169 48.6818L98.5277 48.6904L98.84 48.3ZM142.52 12.18L142.108 12.4639L142.115 12.4733L142.52 12.18ZM12.3383 128.699L0.578331 107.279L-0.298246 107.761L11.4617 129.181L12.3383 128.699ZM0.392632 107.952C11.917 101.206 20.658 93.6005 26.5896 85.1267L25.7704 84.5533C19.942 92.8795 11.323 100.395 -0.112547 107.089L0.392632 107.952ZM26.585 85.1333C32.5383 76.9119 35.5 66.7237 35.5 54.6H34.5C34.5 66.5563 31.5817 76.528 25.775 84.5467L26.585 85.1333ZM34.8419 54.1257C34.0801 54.3796 32.8854 54.52 31.22 54.52V55.52C32.9146 55.52 34.2399 55.3804 35.1581 55.0743L34.8419 54.1257ZM31.22 54.52C24.0517 54.52 17.7222 52.3175 12.2123 47.9096L11.5877 48.6904C17.2778 53.2425 23.8283 55.52 31.22 55.52V54.52ZM12.2334 47.9274C7.03459 43.2758 4.42004 36.9794 4.42004 28.98H3.42004C3.42004 37.2206 6.12549 43.8042 11.5666 48.6726L12.2334 47.9274ZM4.42004 28.98C4.42004 20.1167 6.91004 13.2571 11.8336 8.33356L11.1264 7.62643C5.97005 12.7829 3.42004 19.9233 3.42004 28.98H4.42004ZM11.8336 8.33356C17.0555 3.11163 23.5064 0.5 31.22 0.5V-0.5C23.2536 -0.5 16.5445 2.20837 11.1264 7.62643L11.8336 8.33356ZM31.22 0.5C41.7109 0.5 49.67 4.49127 55.1683 12.4639L55.9916 11.8961C50.2899 3.62872 42.0091 -0.5 31.22 -0.5V0.5ZM55.175 12.4733C60.97 20.4758 63.9 31.8372 63.9 46.62H64.9C64.9 31.7228 61.95 20.1241 55.985 11.8867L55.175 12.4733ZM63.9 46.62C63.9 64.8772 59.5459 80.8114 50.8534 94.4412C42.1597 108.073 29.1079 119.428 11.6693 128.496L12.1307 129.384C29.6921 120.252 42.8903 108.787 51.6966 94.9789C60.5041 81.1686 64.9 65.0428 64.9 46.62H63.9ZM99.2783 128.699L87.5183 107.279L86.6417 107.761L98.4017 129.181L99.2783 128.699ZM87.3326 107.952C98.857 101.206 107.598 93.6005 113.53 85.1267L112.71 84.5533C106.882 92.8795 98.263 100.395 86.8274 107.089L87.3326 107.952ZM113.525 85.1333C119.478 76.9119 122.44 66.7237 122.44 54.6H121.44C121.44 66.5563 118.522 76.528 112.715 84.5467L113.525 85.1333ZM121.782 54.1257C121.02 54.3796 119.825 54.52 118.16 54.52V55.52C119.855 55.52 121.18 55.3804 122.098 55.0743L121.782 54.1257ZM118.16 54.52C110.992 54.52 104.662 52.3175 99.1524 47.9096L98.5277 48.6904C104.218 53.2425 110.768 55.52 118.16 55.52V54.52ZM99.1734 47.9274C93.9746 43.2758 91.36 36.9794 91.36 28.98H90.36C90.36 37.2206 93.0655 43.8042 98.5066 48.6726L99.1734 47.9274ZM91.36 28.98C91.36 20.1167 93.85 13.2571 98.7736 8.33356L98.0665 7.62643C92.91 12.7829 90.36 19.9233 90.36 28.98H91.36ZM98.7736 8.33356C103.995 3.11163 110.446 0.5 118.16 0.5V-0.5C110.194 -0.5 103.485 2.20837 98.0665 7.62643L98.7736 8.33356ZM118.16 0.5C128.651 0.5 136.61 4.49127 142.108 12.4639L142.932 11.8961C137.23 3.62872 128.949 -0.5 118.16 -0.5V0.5ZM142.115 12.4733C147.91 20.4758 150.84 31.8372 150.84 46.62H151.84C151.84 31.7228 148.89 20.1241 142.925 11.8867L142.115 12.4733ZM150.84 46.62C150.84 64.8772 146.486 80.8114 137.793 94.4412C129.1 108.073 116.048 119.428 98.6093 128.496L99.0707 129.384C116.632 120.252 129.83 108.787 138.637 94.9789C147.444 81.1686 151.84 65.0428 151.84 46.62H150.84Z" fill="#EF9D5F"/>
</g>
<defs>
<clipPath id="clip0_95_2">
<rect width="152" height="129" fill="white"/>
</clipPath>
</defs>
</svg>
